<svg width="41" height="40" viewBox="0 0 41 40" fill="none" xmlns="http://www.w3.org/2000/svg">
<path fill-rule="evenodd" clip-rule="evenodd" d="M26.7806 6.66663V8.06977H23.9743V9.4729H21.168V10.876H19.7649V12.2792H18.3618V13.6823H16.9656V12.2792H12.7492V13.6823H11.3461V15.0855H9.94294V16.4886H8.5398V17.8917H7.13666V19.3019H11.3531V17.8988H12.7492V20.705H14.1524V23.5113H16.9586V26.3176H19.7649V27.7207H22.5712V29.1169H21.168V33.3333H22.5782V31.9302H23.9813V30.527H25.3845V29.1239H26.7876V27.7207H28.1908V23.5043H26.7876V22.1082H28.1908V20.705H29.5939V19.3019H30.997V16.4956H32.4002V13.6893H33.8033V6.66663H26.7806ZM26.7806 17.8917V19.2949H22.5782V17.8917H21.1751V13.6893H22.5782V12.2862H26.7806V13.6893H28.1837V17.8917H26.7806Z" fill="#11ED83"/>
<path d="M11.3461 22.1012H12.7562V23.5113H11.3531V24.9145H9.94995V26.3176H8.5398V24.9074H9.94294V23.5043H11.3461V22.1012Z" fill="#11ED83"/>
<path d="M14.1524 24.9074H15.5625V26.3176H14.1594V27.7207H12.7562V29.1239H11.3461V27.7137H12.7492V26.3106H14.1524V24.9074Z" fill="#11ED83"/>
<path d="M18.3688 27.7137H16.9586V29.1169H15.5555V30.52H14.1524V31.9302H15.5625V30.527H16.9656V29.1239H18.3688V27.7137Z" fill="#11ED83"/>
</svg>
