<svg width="105" height="22" viewBox="0 0 105 22" fill="none" xmlns="http://www.w3.org/2000/svg">
<path d="M14.47 19.75H16.22V21.5H14.47H12.72H10.97H9.21997H7.46997H5.71997V19.75H7.46997H9.21997H10.97H12.72H14.47ZM16.22 19.75V18V16.25H17.97V18V19.75H16.22ZM5.71997 19.75H3.96997V18H2.21997V16.25H0.469971V14.5V12.75V11V9.25V7.5V5.75V4V2.25H2.21997V0.5H3.96997H5.71997V2.25H7.46997V4H9.21997V5.75H10.97V7.5V9.25V11H12.72V12.75H14.47V14.5H16.22V16.25H14.47H12.72H10.97H9.21997V14.5V12.75V11V9.25V7.5V5.75H7.46997H5.71997V7.5V9.25V11V12.75V14.5V16.25V18V19.75Z" fill="#11ED83"/>
<path d="M30.78 19.75H32.53V21.5H30.78H29.03V19.75H30.78ZM23.78 19.75H25.53V21.5H23.78H22.03V19.75H23.78ZM32.53 19.75V18V16.25V14.5V12.75V11V9.25V7.5H34.28V9.25V11V12.75V14.5V16.25V18V19.75H32.53ZM29.03 19.75H27.28H25.53V18H27.28H29.03V19.75ZM22.03 19.75H20.28V18H18.53V16.25H16.78V14.5V12.75V11V9.25V7.5V5.75V4H18.53V2.25H20.28V0.5H22.03H23.78H25.53H27.28V2.25H29.03V4H30.78V5.75H32.53V7.5H30.78V5.75H29.03H27.28H25.53H23.78V7.5H22.03V9.25V11V12.75V14.5V16.25V18V19.75ZM27.28 14.5H25.53V12.75V11V9.25H27.28H29.03V11V12.75V14.5H27.28Z" fill="#11ED83"/>
<path d="M45.34 11V9.25H43.59V7.5H41.84V5.75H40.09H38.34V7.5V9.25V11V12.75V14.5V16.25V18V19.75H40.09H41.84V21.5H40.09H38.34V19.75H36.59V18H34.84V16.25H33.09V14.5V12.75V11V9.25V7.5V5.75V4V2.25H34.84V0.5H36.59H38.34V2.25H40.09V4H41.84V2.25H43.59V0.5H45.34H47.09V2.25H48.84V4H50.59V5.75H52.34V7.5V9.25V11V12.75V14.5V16.25V18V19.75H50.59V21.5H48.84H47.09V19.75H48.84H50.59V18V16.25V14.5V12.75V11V9.25V7.5V5.75H48.84H47.09V7.5V9.25V11H45.34ZM47.09 19.75H45.34V18H47.09V19.75ZM41.84 19.75V18V16.25V14.5H43.59V16.25H45.34V18H43.59V19.75H41.84Z" fill="#11ED83"/>
<path d="M63.4 19.75H65.15V21.5H63.4H61.65H59.9H58.15H56.4V19.75H58.15H59.9H61.65H63.4ZM65.15 19.75V18H66.9V19.75H65.15ZM56.4 19.75H54.65V18H52.9V16.25H51.15V14.5V12.75V11V9.25V7.5V5.75V4V2.25H52.9V0.5H54.65H56.4H58.15H59.9H61.65V2.25H63.4V4H65.15V5.75H66.9V7.5H68.65V9.25H70.4V11V12.75V14.5V16.25H68.65V18H66.9V16.25H68.65V14.5V12.75V11V9.25H66.9V7.5H65.15V5.75H63.4H61.65H59.9H58.15H56.4V7.5V9.25V11V12.75V14.5V16.25V18V19.75ZM61.65 16.25H59.9V14.5V12.75V11V9.25H61.65H63.4V11H65.15V12.75V14.5H63.4V16.25H61.65Z" fill="#11ED83"/>
<path d="M83.21 19.75H84.96V21.5H83.21H81.46H79.71H77.96H76.21H74.46V19.75H76.21H77.96H79.71H81.46H83.21ZM84.96 19.75V18V16.25H86.71V18V19.75H84.96ZM74.46 19.75H72.71V18H70.96V16.25H69.21V14.5V12.75V11V9.25V7.5V5.75V4V2.25H70.96V0.5H72.71H74.46H76.21H77.96H79.71H81.46V2.25H83.21V4H84.96V5.75H86.71V7.5V9.25H84.96V11H86.71V12.75V14.5H84.96V16.25H83.21H81.46H79.71H77.96V14.5H79.71H81.46H83.21H84.96V12.75V11H83.21H81.46H79.71H77.96V9.25H79.71H81.46H83.21H84.96V7.5V5.75H83.21H81.46H79.71H77.96H76.21H74.46V7.5V9.25V11V12.75V14.5V16.25V18V19.75Z" fill="#11ED83"/>
<path d="M101.27 19.75H103.02V21.5H101.27H99.52V19.75H101.27ZM92.52 19.75H94.27V21.5H92.52H90.77V19.75H92.52ZM103.02 19.75V18V16.25H104.77V18V19.75H103.02ZM99.52 19.75H97.77V18H99.52V19.75ZM94.27 19.75V18V16.25V14.5H96.02V16.25H97.77V18H96.02V19.75H94.27ZM90.77 19.75H89.02V18H87.27V16.25H85.52V14.5V12.75V11V9.25V7.5V5.75V4V2.25H87.27V0.5H89.02H90.77H92.52H94.27H96.02H97.77V2.25H99.52V4H101.27V5.75H103.02V7.5H104.77V9.25V11H103.02V12.75H101.27V14.5H103.02V16.25H101.27V14.5H99.52V12.75H101.27V11H103.02V9.25V7.5H101.27V5.75H99.52H97.77H96.02H94.27H92.52H90.77V7.5V9.25V11V12.75V14.5V16.25V18V19.75ZM96.02 9.25H97.77V11H96.02H94.27V9.25H96.02Z" fill="#11ED83"/>
</svg>
