<svg width="87" height="22" viewBox="0 0 87 22" fill="none" xmlns="http://www.w3.org/2000/svg">
<path d="M14.23 19.75V21.5H5.47998V19.75H14.23ZM14.23 19.75V18H15.98V19.75H14.23ZM5.47998 19.75H3.72998V18H1.97998V16.25H0.22998V12.75H1.97998V11H3.72998V9.25H1.97998V7.5H0.22998V4H1.97998V2.25H3.72998V0.5H12.48V2.25H14.23V4H15.98V5.75H17.73V9.25H15.98V11H14.23V12.75H15.98V14.5H17.73V18H15.98V14.5H14.23V12.75H12.48V11H10.73V9.25H15.98V5.75H7.22998V7.5H5.47998V11H7.22998V12.75H8.97998V14.5H10.73V16.25H5.47998V19.75Z" fill="#11ED83"/>
<path d="M28.79 19.75V21.5H25.29V19.75H28.79ZM28.79 19.75V9.25H32.29V11H30.54V19.75H28.79ZM25.29 19.75H23.54V18H21.79V16.25H20.04V7.5H18.29V5.75H16.54V2.25H18.29V0.5H28.79V2.25H30.54V4H32.29V5.75H34.04V9.25H32.29V5.75H21.79V9.25H25.29V19.75Z" fill="#11ED83"/>
<path d="M48.6 19.75V21.5H45.1V19.75H48.6ZM41.6 19.75V21.5H38.1V19.75H41.6ZM48.6 19.75V7.5H50.35V19.75H48.6ZM45.1 19.75H41.6V18H45.1V19.75ZM38.1 19.75H36.35V18H34.6V16.25H32.85V4H34.6V2.25H36.35V0.5H43.35V2.25H45.1V4H46.85V5.75H48.6V7.5H46.85V5.75H39.85V7.5H38.1V19.75ZM41.6 14.5V9.25H45.1V14.5H41.6Z" fill="#11ED83"/>
<path d="M66.66 19.75V21.5H63.16V19.75H66.66ZM57.91 19.75V21.5H54.41V19.75H57.91ZM66.66 19.75V16.25H68.41V19.75H66.66ZM63.16 19.75H61.41V18H63.16V19.75ZM57.91 19.75V14.5H59.66V16.25H61.41V18H59.66V19.75H57.91ZM54.41 19.75H52.66V18H50.91V16.25H49.16V2.25H50.91V0.5H61.41V2.25H63.16V4H64.91V5.75H66.66V7.5H68.41V11H66.66V12.75H64.91V14.5H66.66V16.25H64.91V14.5H63.16V12.75H64.91V11H66.66V7.5H64.91V5.75H54.41V19.75ZM61.41 9.25V11H57.91V9.25H61.41Z" fill="#11ED83"/>
<path d="M75.97 11V5.75H72.47V19.75H75.97V21.5H72.47V19.75H70.72V18H68.97V16.25H67.22V2.25H68.97V0.5H72.47V2.25H74.22V4H75.97V2.25H77.72V0.5H81.22V2.25H82.97V4H84.72V5.75H86.47V7.5H84.72V9.25H82.97V11H81.22V14.5H82.97V16.25H84.72V18H86.47V19.75H84.72V21.5H81.22V19.75H84.72V18H82.97V16.25H81.22V14.5H79.47V11H81.22V9.25H82.97V7.5H84.72V5.75H81.22V7.5H79.47V9.25H77.72V11H75.97ZM81.22 19.75H79.47V18H81.22V19.75ZM75.97 19.75V16.25H79.47V18H77.72V19.75H75.97Z" fill="#11ED83"/>
</svg>
